PathFileType	4	(x/y/z)	S08_PSF_T14
DataRate	CameraRate	NumFrames	NumMarkers	Units	OrigDataRate	OrigDataStartFrame	OrigNumFrames
240	240	5	51	mm	240	365	417
Frame#	Time	Sternum			R.Acromium			L.Acromium			Top.Head			R.ASIS			L.ASIS			R.PSIS			L.PSIS			R.Great.Tro			L.Great.Tro			R.Iliac.Crest			L.Iliac.Crest			V.Sacral			R.Thigh.Upper.Post			R.Thigh.Lower.Ant			R.Thigh.Lower.Post			R.Thigh.Upper.Ant			R.Knee.Lat			R.Knee.Med			R.Shank.Upper.Post			R.Shank.Lower.Ant			R.Shank.Lower.Post			R.Shank.Upper.Ant			R.Ankle.Lat			R.Ankle.Med			R.Heel.Upper			R.Heel.Med			R.Heel.Lat			R.Toe.Lat			R.Toe.Med			R.Toe.Tip			L.Thigh.Upper.Post			L.Thigh.Lower.Ant			L.Thigh.Lower.Post			L.Thigh.Upper.Ant			L.Knee.Lat			L.Knee.Med			L.Shank.Upper.Post			L.Shank.Lower.Ant			L.Shank.Lower.Post			L.Shank.Upper.Ant			L.Ankle.Lat			L.Ankle.Med			L.Heel.Upper			L.Heel.Med			L.Heel.Lat			L.Toe.Lat			L.Toe.Med			L.Toe.Tip			Cervical.Spine			Back			
		X1	Y1	Z1	X2	Y2	Z2	X3	Y3	Z3	X4	Y4	Z4	X5	Y5	Z5	X6	Y6	Z6	X7	Y7	Z7	X8	Y8	Z8	X9	Y9	Z9	X10	Y10	Z10	X11	Y11	Z11	X12	Y12	Z12	X13	Y13	Z13	X14	Y14	Z14	X15	Y15	Z15	X16	Y16	Z16	X17	Y17	Z17	X18	Y18	Z18	X19	Y19	Z19	X20	Y20	Z20	X21	Y21	Z21	X22	Y22	Z22	X23	Y23	Z23	X24	Y24	Z24	X25	Y25	Z25	X26	Y26	Z26	X27	Y27	Z27	X28	Y28	Z28	X29	Y29	Z29	X30	Y30	Z30	X31	Y31	Z31	X32	Y32	Z32	X33	Y33	Z33	X34	Y34	Z34	X35	Y35	Z35	X36	Y36	Z36	X37	Y37	Z37	X38	Y38	Z38	X39	Y39	Z39	X40	Y40	Z40	X41	Y41	Z41	X42	Y42	Z42	X43	Y43	Z43	X44	Y44	Z44	X45	Y45	Z45	X46	Y46	Z46	X47	Y47	Z47	X48	Y48	Z48	X49	Y49	Z49	X50	Y50	Z50	X51	Y51	Z51	

365	1.5167	484.05	1218.6	313.04	375.94	1458.8	490.46	362.6	1490.4	157.07	380.24	1774.7	339.12	461.59	1009.1	418.2	454.2	1010.9	185.48	257.6	1030.8	352.88	258.5	1037.9	258.72	407.42	902.5	493.06	352.72	906.8	124.72	367.08	1075	469.73	361	1093.2	161.78	242.62	993.72	303.9	460.35	705.87	484.27	565.77	640.9	448.13	497.16	624.65	464.26	533.49	728.85	467.13	573.4	543.26	442.67	540.16	531.13	318.09	563.36	351.92	456.58	639.02	308.47	433.7	584.34	277.59	450.24	618.22	383.2	441.29	633.29	111.71	418.03	656.38	137.68	338.6	600.22	62.133	368.33	620.62	42.766	340.37	614.53	39.859	401.98	NaN	NaN	NaN	792.64	108.07	329.44	847.23	145.72	375.46	302.66	715	137.75	365.56	609.87	170.16	299.23	623.85	161	370.06	695.71	143.9	289.25	515.96	186.48	289.45	519.37	311.9	187.74	349.94	191.22	234.98	252	219.01	169.29	280.18	210.5	247.83	325.42	200.18	154.63	107.47	235.5	177.3	109.26	320.5	96.83	80.937	285.2	109.26	43.994	313.57	102.1	55.315	250.19	276.73	40.205	208.82	299.43	35.606	324.12	362.85	50.634	273.35	303.87	1517.5	318.67	250.56	1235.8	324.38
366	1.5208	489.31	1217.6	313.11	381.26	1457.9	490.65	367.93	1489.5	157.27	385.41	1773.8	339.42	466.93	1008.2	418.18	459.17	1010	185.44	262.84	1029.8	353.18	263.67	1037	259.09	412.89	901.64	493.17	357.4	906.09	124.75	372.37	1074	469.88	365.99	1092.3	161.94	247.82	992.79	304.21	465.03	704.84	484.64	570.24	639.57	448.25	501.61	623.51	464.58	538.22	727.59	467.32	577.83	542.09	442.8	544.18	529.76	318.24	570.44	350.63	456.54	646.82	308.38	433.43	592.61	276.6	450	624.8	382.8	441.22	644.5	111.42	417.43	667.07	137.97	337.98	612.29	61.244	367.66	633.02	42.324	339.62	627.08	39.188	401.22	NaN	NaN	NaN	803.94	110.8	328.6	857.9	149.31	374.64	306.54	714.69	137.78	368.99	609.24	170.16	302.7	623.53	161.11	373.83	695.05	143.87	292.14	515.65	186.6	292.65	519.04	312.04	189.58	350.28	191.43	236.21	252.02	219.1	170.7	280.63	210.72	249.53	325.36	200.31	154.97	107.92	235.68	177.75	109.61	320.66	97.039	81.388	285.45	109.4	44.386	313.77	102.22	55.775	250.41	276.77	40.183	208.85	299.54	35.539	324.12	362.99	50.361	273.31	309.21	1516.7	318.87	255.84	1234.9	324.5
367	1.525	494.58	1216.6	313.2	386.59	1456.9	490.85	373.29	1488.6	157.48	390.59	1772.9	339.73	472.3	1007.3	418.16	464.17	1009.1	185.42	268.1	1028.9	353.5	268.87	1036	259.47	418.4	900.79	493.28	362.11	905.38	124.8	377.69	1073.1	470.03	371	1091.5	162.1	253.04	991.84	304.53	469.78	703.84	484.98	574.77	638.26	448.35	506.11	622.39	464.86	543.01	726.37	467.51	582.27	540.93	442.93	548.25	528.42	318.38	577.36	349.39	456.46	654.39	308.26	433.15	600.63	275.65	449.73	631.25	382.37	441.14	655.28	111.17	416.8	677.37	138.27	337.34	623.9	60.447	366.95	644.95	41.956	338.83	639.12	38.6	400.43	NaN	NaN	NaN	814.79	113.39	327.82	868.14	152.71	373.91	310.47	714.37	137.83	372.47	608.62	170.17	306.24	623.2	161.24	377.66	694.4	143.86	295.11	515.35	186.75	295.94	518.7	312.21	191.49	350.66	191.64	237.5	252.06	219.21	172.17	281.1	210.94	251.29	325.3	200.45	155.35	108.4	235.85	178.23	109.98	320.82	97.267	81.899	285.68	109.55	44.841	313.97	102.36	56.286	250.62	276.81	40.16	208.89	299.66	35.479	324.12	363.13	50.073	273.27	314.56	1515.8	319.07	261.13	1234	324.63
368	1.5292	499.87	1215.6	313.3	391.93	1455.9	491.06	378.67	1487.7	157.69	395.76	1772	340.05	477.68	1006.5	418.15	469.21	1008.2	185.39	273.38	1027.9	353.82	274.1	1035.1	259.86	423.96	899.95	493.39	366.84	904.67	124.85	383.04	1072.2	470.19	376.04	1090.6	162.27	258.29	990.89	304.86	474.59	702.86	485.29	579.37	637	448.43	510.69	621.31	465.11	547.87	725.18	467.68	586.75	539.8	443.04	552.38	527.14	318.5	584.1	348.18	456.35	661.74	308.11	432.86	608.4	274.73	449.43	637.55	381.93	441.05	665.61	110.95	416.14	687.28	138.56	336.7	635.03	59.732	366.2	656.37	41.647	338.01	650.62	38.082	399.61	NaN	NaN	NaN	825.19	115.81	327.1	877.94	155.87	373.27	314.45	714.05	137.92	376.03	607.99	170.2	309.83	622.87	161.39	381.53	693.75	143.86	298.16	515.04	186.91	299.32	518.35	312.39	193.47	351.05	191.86	238.83	252.12	219.31	173.7	281.61	211.15	253.11	325.27	200.6	155.74	108.93	236.01	178.72	110.39	320.96	97.516	82.475	285.9	109.71	45.363	314.15	102.51	56.854	250.81	276.86	40.134	208.92	299.78	35.426	324.11	363.29	49.769	273.23	319.92	1514.9	319.27	266.43	1233.1	324.77
369	1.5333	505.17	1214.6	313.41	397.27	1455	491.28	384.07	1486.8	157.91	400.93	1771.1	340.37	483.09	1005.6	418.15	474.27	1007.4	185.37	278.68	1027	354.14	279.37	1034.1	260.27	429.55	899.11	493.5	371.6	903.95	124.92	388.42	1071.2	470.35	381.09	1089.7	162.44	263.56	989.95	305.2	479.46	701.92	485.56	584.03	635.77	448.5	515.33	620.26	465.33	552.8	724.03	467.85	591.26	538.68	443.13	556.6	525.91	318.61	590.68	347.02	456.2	668.86	307.92	432.57	615.9	273.84	449.1	643.72	381.45	440.96	675.47	110.73	415.46	696.78	138.84	336.05	645.66	59.087	365.41	667.27	41.381	337.16	661.56	37.619	398.76	NaN	NaN	NaN	835.13	118.03	326.45	887.29	158.75	372.72	318.49	713.73	138.03	379.65	607.37	170.24	313.5	622.53	161.58	385.46	693.1	143.88	301.3	514.73	187.08	302.79	518	312.59	195.54	351.47	192.07	240.22	252.2	219.41	175.3	282.15	211.35	255	325.24	200.74	156.16	109.5	236.16	179.24	110.84	321.08	97.788	83.12	286.09	109.87	45.958	314.32	102.67	57.483	250.99	276.92	40.106	208.95	299.9	35.383	324.1	363.45	49.452	273.18	325.29	1514.1	319.49	271.75	1232.2	324.91
